<svg width="245" height="406" viewBox="0 0 245 406" fill="none" xmlns="http://www.w3.org/2000/svg">
<path d="M49 0L57 1L75 10L77 13L75 15L78 17L80 67L88 65L94 69L100 79L106 75H115L125 78L128 82L147 71L163 70L173 89L178 106L193 136L230 226L236 238H238L234 246L243 253V264L245 267L222 282L240 316L245 321L243 327L226 336L194 318L187 307L183 308L184 304L170 311L167 315L159 318L156 322L124 341L131 381V389L128 393L133 392L124 401L115 406L108 403L105 405L86 392L81 355L69 347L52 306L41 308L25 297V228L0 166L1 160L24 144V138L22 137L25 133V121L23 119V68L27 9L49 0Z" />
</svg>
