<svg width="183" height="531" viewBox="0 0 183 531" fill="none" xmlns="http://www.w3.org/2000/svg">
<path d="M96 0L121 5L134 11L154 31L169 108L177 136L176 156L172 166L175 195L183 205L181 212L176 216H167L163 210V203L169 197L166 174L148 189L150 222L155 224L158 230L153 238L144 239L138 233L139 225L143 222L142 192L126 197L118 196L114 198L115 226L124 234L125 242L124 246L118 249H108L112 355L110 412L131 417L145 423L152 427L163 440L170 458V490L160 508L144 521L127 528L111 531H85L67 528L35 509L22 491L18 465V456L22 446L31 436L46 426L79 414L78 245L67 247L62 240V235L67 229L66 196L40 189L41 215L47 220V229L42 234L32 233L27 225L30 216L35 213L33 185L13 169V190L19 199V205L15 211H6L1 205V195L6 191V170L5 160L0 151V140L21 68L25 37L41 17L71 4L96 0Z" />
</svg>
