<svg width="218" height="415" viewBox="0 0 218 415" fill="none" xmlns="http://www.w3.org/2000/svg">
<path d="M144 0L140 8H143L145 11L149 31L153 88L147 156L141 179L136 189L138 190L142 186L145 179L148 178L150 172L157 165V162L186 138L212 130H215L218 136L189 197L164 230L171 236L181 254L182 283L177 306L180 305L170 316V323L158 367L148 390L138 400L123 408L103 414L77 415L56 409L40 399L31 380L13 320L3 305L0 287L1 259L7 244L26 220L16 189L18 185L14 130L16 121L19 124L22 121L23 127L36 148L39 149L36 111L39 68L42 50L50 49L66 77L88 142L89 128L87 127L90 125L88 124L91 109L110 51L123 25L135 8L144 0Z" />
</svg>
