<svg width="278" height="390" viewBox="0 0 278 390" fill="none" xmlns="http://www.w3.org/2000/svg">
<path d="M112 0H135L141 2L155 15L160 30L152 47L158 63L160 86L152 116L163 114L168 119L174 137V152L226 217L231 228L232 239L262 254L274 269L278 282L277 299L270 315L265 322L252 330L234 327L172 286L160 294L159 297L180 324L193 351L192 359L184 365L180 374L162 389L147 390L133 388L118 380L103 365H100L93 336L82 307L74 318L46 327L20 310L13 298L17 241L35 176L39 138L38 134L23 121L19 91L3 74L0 65L1 45L9 27L16 23L33 22L47 26L63 11L82 6L103 7L112 0Z" />
</svg>
